<svg xmlns="http://www.w3.org/2000/svg" width="100mm" height="14.62mm" viewBox="0 0 283.46 41.45">
  <g>
    <g>
      <path d="M402.65,496.38H367.24L365.7,494h36.95c.38,0,.47.46.47,1.19S403,496.38,402.65,496.38Zm-17.81-5.53c-9.19,0-16.16-2.34-16.16-7.23s7-7.22,16.16-7.22S401,478.73,401,483.62,394,490.85,384.84,490.85Zm16.54,17.86H371.23a2.56,2.56,0,0,1-2.55-2.56V498.5h4.25a1.32,1.32,0,0,1,1.28,1.28v5.27a1.31,1.31,0,0,0,1.27,1.27h25.9c.38,0,.46.47.46,1.2S401.76,508.71,401.38,508.71Zm-16.54-29.93c-6,0-10.46,1.49-10.46,4.84s4.42,4.85,10.46,4.85,10.46-1.49,10.46-4.85S390.88,478.78,384.84,478.78Z" transform="translate(-159.28 -471.23)" fill="#005bac"/>
      <g>
        <path d="M441,499.12h-6.5a4.06,4.06,0,0,1,2.35,3.67c0,3.6-4.27,5.15-10.09,5.15s-10.09-1.55-10.09-5.15,4.27-5.2,10.09-5.2h15.72V477.67a1.31,1.31,0,0,0-1.27-1.27h-4v6.8h-3v-5.53a1.3,1.3,0,0,0-1.28-1.27h-4v17.43h5.31v-8.08h3v9.7H426.71c-9.15,0-16,2.52-16,7.41s6.89,7.41,16,7.41,16-2.51,16-7.41A4.85,4.85,0,0,0,441,499.12Z" transform="translate(-159.28 -471.23)" fill="#005bac"/>
        <path d="M426.74,486.32a6.5,6.5,0,0,0-1.28-3.89h-5.37a5.49,5.49,0,0,1,1.27,3.85c0,2.53-1.12,5.23-4.25,5.23-2.58,0-4.31-2.53-4.31-5.23,0-2.87,1.56-5.4,4.28-5.4h10.29c.31,0,.38-.6.38-1.24s-.07-1.12-.38-1.12H419.8v-2a1.12,1.12,0,0,0-1.05-1.14h-4.63v3.15h-8.26l1.24,2.36h3.13a6.72,6.72,0,0,0-2.62,5.44c0,4.19,3.77,7.54,9.5,7.54S426.74,490.51,426.74,486.32Z" transform="translate(-159.28 -471.23)" fill="#005bac"/>
      </g>
      <path d="M312.28,496.8a5.11,5.11,0,0,1,2.56,4.48c0,4.31-4.64,6.29-10.39,6.29s-10.39-2-10.39-6.29,4.58-6.28,10.39-6.28l-.08,0h17.29a.48.48,0,0,0,.45-.47,5,5,0,0,0,0-1.47.44.44,0,0,0-.44-.4H307.14v-4.49H321a.47.47,0,0,0,.45-.46,5.33,5.33,0,0,0,0-1.48.47.47,0,0,0-.47-.4H294.76a1.31,1.31,0,0,1-1.33-1.28v-6.39a1.32,1.32,0,0,0-1.34-1.29H288v8.89a2.48,2.48,0,0,0,2.54,2.41h11.16v4.49h-16l1.55,2.34H292a7.07,7.07,0,0,0-3.35,6c0,6.15,7.08,8.95,15.81,8.95s15.82-2.8,15.82-8.95a6.65,6.65,0,0,0-1.41-4.2Z" transform="translate(-159.28 -471.23)" fill="#005bac"/>
      <path d="M342.29,482.45a5.34,5.34,0,0,1,.74,1.05,5.78,5.78,0,0,1,.76,2.83,5.67,5.67,0,1,1-11.34,0,5.66,5.66,0,0,1,5.6-5.74h12.2a.49.49,0,0,0,.45-.48,4.85,4.85,0,0,0,0-1.5.45.45,0,0,0-.46-.41h-9.31v-1.29a1.34,1.34,0,0,0-1.38-1.3h-4.23v2.59H324.7c.22.31,1.53,2.3,1.59,2.39h4a7.17,7.17,0,0,0-3.32,5.74c0,4.47,4.49,8.07,11.15,8.07,4.47,0,7.75-1.63,9.67-4.07h7.72v8.75H335v-2.44a1.34,1.34,0,0,0-1.38-1.31h-4.21v10.9a2.56,2.56,0,0,0,2.61,2.48h29.1V477.57a1.35,1.35,0,0,0-1.38-1.32h-4.24v6.2Zm13.22,23.86H335.77a.74.74,0,0,1-.76-.73v-4.1h20.5Zm0-18.37H349a6.13,6.13,0,0,0,.22-1.61,6.27,6.27,0,0,0-.19-1.49h6.46Z" transform="translate(-159.28 -471.23)" fill="#005bac"/>
      <path d="M278,477.06h-4.9v12.65h-20V477.06h-4.9a2.33,2.33,0,0,0-2.1,2.5v26.73a2.32,2.32,0,0,0,2.1,2.49h4.9V495.2h20v13.58H278a2.32,2.32,0,0,0,2.1-2.49V479.56A2.32,2.32,0,0,0,278,477.06Z" transform="translate(-159.28 -471.23)" fill="#005bac"/>
      <path d="M237.93,477.06H233v24.29L218.3,482c-2.45-2.83-4.13-4.89-8-4.89h-5v29.23a2.32,2.32,0,0,0,2.11,2.49h4.89v-24.4l14.82,19.27c2.5,2.9,4.73,5.13,8.36,5.13H240V479.56A2.33,2.33,0,0,0,237.93,477.06Z" transform="translate(-159.28 -471.23)" fill="#005bac"/>
    </g>
    <g>
      <polygon points="24.95 0 16.77 4.1 8.6 0 16.77 15.54 24.95 0" fill="#fabe00"/>
      <path d="M187.09,483.23l-.12-.1,5.82-2.46v-8.19l-10.13,4.32-5.61,10.63a8.52,8.52,0,1,1-2,0c-.12-.24-5.6-10.63-5.6-10.63l-10.12-4.32v8.19l5.83,2.46-.13.1a16.77,16.77,0,1,0,22.06,0Z" transform="translate(-159.28 -471.23)" fill="#fabe00"/>
    </g>
  </g>
</svg>
