<svg xmlns="http://www.w3.org/2000/svg" width="100mm" height="13.55mm" viewBox="0 0 283.46 38.4">
  <g>
    <g>
      <path d="M257.79,556.1H261a.36.36,0,0,0,.38-.35V550.1a.37.37,0,0,0-.38-.35H256.5c-5.17,0-7.91,1.56-9.47,4.86L237.31,577a3,3,0,0,1-3.12,2V550.1a.37.37,0,0,0-.38-.35h-7.14a.37.37,0,0,0-.38.35v34.63a.65.65,0,0,0,.67.62h8c5.17,0,7.53-1.55,9.1-4.85l9.59-22.14C254.43,556.79,255.53,556.1,257.79,556.1Z" transform="translate(-141.73 -547.73)" fill="#cb1f23"/>
      <path d="M170.49,567.55a8,8,0,0,0,5.24-7.81c0-6.22-5.67-10-12.5-10H142.11a.37.37,0,0,0-.38.35v5.65a.36.36,0,0,0,.38.35h19.65c3.18,0,5.32,1.83,5.32,4.08s-2.14,4.07-5.32,4.07H150.09v-4.2a.37.37,0,0,0-.38-.35h-7.6a.37.37,0,0,0-.38.35v25a.36.36,0,0,0,.38.35h20.81c7.78,0,13.35-3.41,13.35-10.37C176.27,571.56,174.13,568.73,170.49,567.55Zm-8.32,11.6H150.09V570.8h12.08c3.25,0,5.45,1.87,5.45,4.18S165.42,579.15,162.17,579.15Z" transform="translate(-141.73 -547.73)" fill="#cb1f23"/>
      <path d="M265.18,585,252.94,570.2a.06.06,0,0,0-.11,0l-3.3,7.58a.14.14,0,0,0,0,.15l5.35,6.76a1.69,1.69,0,0,0,1.45.64H265A.23.23,0,0,0,265.18,585Z" transform="translate(-141.73 -547.73)" fill="#cb1f23"/>
      <path d="M189.68,559.7h-7.15a.36.36,0,0,0-.37.35v25a.35.35,0,0,0,.37.35h7.15a.36.36,0,0,0,.38-.35v-25A.37.37,0,0,0,189.68,559.7Z" transform="translate(-141.73 -547.73)" fill="#cb1f23"/>
      <path d="M219.1,549.75H212a.36.36,0,0,0-.37.35V579a3,3,0,0,1-3.11-2l-9.73-22.42c-1.56-3.3-4.31-4.86-9.47-4.86h-6.74a.36.36,0,0,0-.37.35v5.65a.35.35,0,0,0,.37.35H188c2.25,0,3.36.69,4.13,2.26l9.59,22.14c1.57,3.3,3.93,4.85,9.1,4.85h8a.64.64,0,0,0,.66-.62V550.1A.37.37,0,0,0,219.1,549.75Z" transform="translate(-141.73 -547.73)" fill="#cb1f23"/>
    </g>
    <path d="M328.29,580.55v-7.93H322.4v9.07c0,2,1.32,3.7,4.65,3.71h20v-4.15H329A.72.72,0,0,1,328.29,580.55Zm82-19.25a7.27,7.27,0,0,0-2.92-5.86h3.31v-3.7h-6.07v-3.23h-5.66v3.23h-6.12v3.7h3.4a7.26,7.26,0,0,0-2.93,5.86c0,4.21,3.73,7.59,8.49,7.61S410.27,565.51,410.27,561.3Zm-8.5,3.93a4,4,0,1,1,4-4A3.86,3.86,0,0,1,401.77,565.23Zm-36,15.31v-6.12h-5.81v7.27c0,2,1.3,3.7,4.65,3.71h21.54v-4.15H366.48A.72.72,0,0,1,365.73,580.54Zm-11.49-9h35.7v-4.16h-35.7Zm17.86-6.81c6,0,11-3.77,11-8.5s-4.95-8.49-11-8.5-11,3.78-11,8.5S366.06,564.73,372.1,564.73Zm0-12.91c3.09,0,5.55,2,5.56,4.41s-2.47,4.42-5.56,4.42-5.57-2-5.57-4.42S369,551.82,372.1,551.82Zm48.08-3.31v7h-2.46v-7h-5v18.84h2.85a2,2,0,0,0,2.17-2.13V560h2.46v7.34H423a2,2,0,0,0,2.17-2.13V548.51Zm-6.29,20.43c-5.93,0-10.78,3.82-10.79,8.6s4.86,8.58,10.79,8.59,10.77-3.83,10.78-8.59S419.83,569,413.89,568.94Zm0,13c-2.95,0-5.31-2-5.31-4.45s2.36-4.46,5.31-4.47,5.31,2,5.32,4.47S416.84,582,413.89,582Zm-67.66-33.47h-5.51v25.19H344a2.09,2.09,0,0,0,2.23-2.21V560.41h5v-4.66h-5Zm-60.71,16.56h16.2c3.33,0,4.63-1.68,4.63-3.71V548.51h-5.29v3.65h-14.9v-3.65h-5.28v12.86C280.88,563.4,282.19,565.08,285.52,565.08Zm.68-8.88H301v4.1a.73.73,0,0,1-.74.71H286.94a.73.73,0,0,1-.74-.71ZM274.11,573h16.4v11.91h3.6a2.32,2.32,0,0,0,2.41-2.55V573h15.24v-4.21H274.11ZM334.76,569l.14.07,2.46-3.25-.25-.17c-4.6-3.07-8.17-7.41-8.17-12.74v-3.55h-6v3.55c0,5.56-4.35,10.73-8.26,13.21l-.16.1,2.46,3.25.15-.08a24.94,24.94,0,0,0,8.81-8.66A23.81,23.81,0,0,0,334.76,569Z" transform="translate(-141.73 -547.73)" fill="#645c4f"/>
  </g>
</svg>
