<svg xmlns="http://www.w3.org/2000/svg" viewBox="0 0 167.90669 22.74361"><g id="레이어_2" data-name="레이어 2"><g id="레이어_1-2" data-name="레이어 1"><path d="M68.7456,4.95941h1.8847a.21361.21361,0,0,0,.2217-.2065V1.40621a.21594.21594,0,0,0-.2217-.2109H67.9829c-3.0616,0-4.6866.9219-5.6128,2.8823L56.6123,17.352A1.75808,1.75808,0,0,1,54.767,18.52V1.40621a.21808.21808,0,0,0-.2241-.2109H50.3125a.21926.21926,0,0,0-.2247.2109v20.5093a.38455.38455,0,0,0,.396.3701H55.228c3.0605,0,4.4609-.9228,5.3877-2.8774l5.6826-13.1094A2.31466,2.31466,0,0,1,68.7456,4.95941Z" style="fill:#555"/><path d="M17.0336,11.74221a4.72,4.72,0,0,0,3.1045-4.6275c0-3.6841-3.3593-5.9194-7.4072-5.9194H.2216A.21655.21655,0,0,0,0,1.40621v3.3467a.21421.21421,0,0,0,.2216.2065H11.8632c1.8814,0,3.1499,1.08159,3.1499,2.4117,0,1.333-1.2685,2.4131-3.1499,2.4131H4.9477V7.29881a.21759.21759,0,0,0-.2222-.21H.2216a.21647.21647,0,0,0-.2216.21v14.7764a.21615.21615,0,0,0,.2216.2104H12.5502c4.608,0,7.9078-2.0234,7.9078-6.147A4.57908,4.57908,0,0,0,17.0336,11.74221Zm-4.9301,6.8691H4.9477V13.666h7.1558c1.9277,0,3.2304,1.10841,3.2304,2.47261C15.3339,17.50491,14.0312,18.61131,12.1035,18.61131Z" style="fill:#555"/><path d="M73.1235,22.04591l-7.252-8.7344a.0362.0362,0,0,0-.0649.0078l-1.9536,4.4941a.08228.08228,0,0,0,.0107.0835l3.1714,4.0044a.99038.99038,0,0,0,.8579.3843h5.1104A.14076.14076,0,0,0,73.1235,22.04591Z" style="fill:#555"/><path d="M28.4033,7.08881H24.166a.21649.21649,0,0,0-.2217.21v14.7764a.21617.21617,0,0,0,.2217.2104h4.2373a.217.217,0,0,0,.2226-.2104V7.29881A.21737.21737,0,0,0,28.4033,7.08881Z" style="fill:#555"/><path d="M45.8271,1.19531H41.5932a.216.216,0,0,0-.2207.2109V18.52a1.75336,1.75336,0,0,1-1.8432-1.168L33.768,4.07761c-.9258-1.9604-2.5503-2.8823-5.6123-2.8823H24.166a.21657.21657,0,0,0-.2217.2109v3.3467a.21424.21424,0,0,0,.2217.2065h3.227a2.31613,2.31613,0,0,1,2.4478,1.3394l5.6831,13.1094c.9272,1.9546,2.3257,2.8774,5.3872,2.8774h4.7461a.3806.3806,0,0,0,.3906-.3701V1.40621A.21632.21632,0,0,0,45.8271,1.19531Z" style="fill:#555"/><path d="M110.5053,19.44141v-4.7002H107.019v5.3721c.0029,1.19869.7783,2.1943,2.752,2.1982h11.8681V19.855H110.9458A.427.427,0,0,1,110.5053,19.44141Zm48.56159-11.4033a4.30636,4.30636,0,0,0-1.7334-3.4742h1.9599V2.37451h-3.5957V.46141H152.3481v1.9131h-3.623v2.1894h2.01169a4.30166,4.30166,0,0,0-1.7373,3.4742,5.06469,5.06469,0,0,0,10.0674,0Zm-5.0352,2.33a2.28828,2.28828,0,0,1-2.3457-2.3779,2.35076,2.35076,0,1,1,4.7012,0A2.29524,2.29524,0,0,1,154.03169,10.36811ZM132.6831,19.437V15.80811h-3.44441v4.3052c.0049,1.19869.77541,2.1943,2.7559,2.1982h12.7578V19.855h-11.627A.42944.42944,0,0,1,132.6831,19.437Zm-6.80571-5.33639h21.1475v-2.4605h-21.1475Zm10.5762-4.0298c3.5742-.0039,6.498-2.23681,6.5039-5.0362-.0059-2.7978-2.9297-5.0307-6.5039-5.03461-3.5762.00391-6.503,2.23681-6.5059,5.03461C129.95059,7.834,132.87739,10.06691,136.45359,10.07081Zm0-7.6509c1.832.0024,3.289,1.1846,3.2929,2.6147-.0039,1.4297-1.4609,2.6167-3.2929,2.6167-1.836,0-3.2959-1.187-3.2998-2.6167C133.15769,3.60451,134.61759,2.42231,136.45359,2.41991ZM164.9331.46141v4.1699H163.476V.46141h-2.9726V11.624h1.6894a1.204,1.204,0,0,0,1.2832-1.26469V7.27291h1.45711V11.624h1.69229a1.20455,1.20455,0,0,0,1.2813-1.26469V.46141Zm-3.72071,12.102c-3.5176.0054-6.3877,2.2652-6.3916,5.0909.0039,2.8252,2.874,5.0849,6.3916,5.0893,3.51271-.0044,6.3759-2.2641,6.38371-5.0893C167.58829,14.82861,164.7251,12.56881,161.21239,12.56341Zm0,7.7315a2.92713,2.92713,0,0,1-3.1475-2.6406,3.19578,3.19578,0,0,1,6.2949,0A2.93451,2.93451,0,0,1,161.21239,20.29491ZM121.13419.46681h-3.2685v14.9233h1.9453a1.24379,1.24379,0,0,0,1.3232-1.31V7.51121h2.9756V4.75291h-2.9756ZM85.1718,10.27631h9.5933c1.9731-.0024,2.7446-.9961,2.7461-2.1962V.46141H94.3759v2.1621H85.5498V.46141H82.4199v7.6187C82.4238,9.28021,83.1958,10.27391,85.1718,10.27631Zm.4038-5.2617h8.7735v2.4331a.4298.4298,0,0,1-.4414.4175H86.0136a.429.429,0,0,1-.438-.4175Zm-7.1611,9.9668h9.7119v7.0532h2.1309a1.37448,1.37448,0,0,0,1.4297-1.5107v-5.5425h9.0283v-2.4927H78.4145Zm35.92189-2.415.0859.042,1.459-1.9219-.1504-.1016c-2.72559-1.8203-4.84179-4.3916-4.84079-7.5454V.938h-3.54V3.03951c.0029,3.2906-2.5782,6.35549-4.8946,7.8218l-.0976.0596,1.4609,1.9238.0898-.0435a14.782,14.782,0,0,0,5.2168-5.1323A14.07037,14.07037,0,0,0,114.33639,12.56641Z" style="fill:#555"/></g></g></svg>