<svg xmlns="http://www.w3.org/2000/svg" width="119.81868mm" height="31.38657mm" viewBox="0 0 339.6435 88.96981">
  <g>
    <g>
      <g>
        <path d="M114.8701,61.19931h6.1719c5.8672,0,8.4531,4.1865,8.4531,7.9375a8.0236,8.0236,0,0,1-8.4277,7.9394h-6.1973Zm2.2842,13.8281h3.6318c5.169,0,6.3565-3.9375,6.3565-5.8906,0-3.1885-2.0264-5.8907-6.4727-5.8907h-3.5156Z"/>
        <path d="M140.1367,60.98731c5.2373,0,8.542,3.72469,8.542,8.1495,0,4.28019-3.2109,8.1484-8.5898,8.1484a8.15618,8.15618,0,1,1,.0478-16.2979Zm0,14.2022a6.05391,6.05391,0,1,0-6.1719-6.0527A5.9592,5.9592,0,0,0,140.1367,75.18951Z"/>
        <path d="M166.1699,77.07621h-1.957l-10.6162-12.2217v12.2217H151.456V61.19931h1.8135l10.7578,12.291v-12.291h2.1426Z"/>
        <path d="M183.5791,75.97951a13.85681,13.85681,0,0,1-6.0527,1.3057c-4.8653,0-8.4512-3.4004-8.4512-8.0566a8.22239,8.22239,0,0,1,8.5224-8.2413,12.93146,12.93146,0,0,1,5.6573,1.3516v2.3047a11.85107,11.85107,0,0,0-5.7051-1.55961,6.0025,6.0025,0,0,0-6.1211,6.07811c0,3.5381,2.6533,6.0274,6.4248,6.0274a11.163,11.163,0,0,0,3.4463-.6279v-3.2598H178.249V69.253h5.3301Z"/>
        <path d="M191.9892,71.42291h-5.6601v-2.167h5.6601Z"/>
        <path d="M208.1943,77.07621h-2.3271l-2.1221-4.6787h-6.752l-2,4.6787H192.665l6.8203-15.9707h1.6036Zm-10.3144-6.7285h4.9375l-2.5645-5.752Z"/>
        <path d="M229.75,70.836c0,3.88771-2.3252,6.44921-7.0537,6.44921-3.3526,0-6.6104-1.8857-6.6104-6.2188v-9.8671h2.2803v9.3789c0,1.7949.2324,2.542.957,3.2617a4.617,4.617,0,0,0,3.419,1.3496,5.20483,5.20483,0,0,0,3.7275-1.2793,4.62209,4.62209,0,0,0,1-3.4697v-9.2412H229.75Z"/>
        <path d="M247.584,77.07621h-1.9571l-10.6162-12.2217v12.2217h-2.1406V61.19931h1.8135l10.7578,12.291v-12.291h2.1426Z"/>
        <path d="M253.3769,77.07621h-2.2802V61.19931h2.2802Z"/>
        <path d="M262.4853,77.21491h-.4687l-6.8701-16.0156h2.2822l4.7754,11.1503,4.749-11.1503h2.2568Z"/>
        <path d="M279.9639,63.24611h-6.7295V68.042h6.4961v2.04791h-6.4961v4.9375h6.9394v2.0488h-9.2187V61.19931h9.0088Z"/>
        <path d="M286.6465,61.19931c3.2119,0,5.2168,1.6972,5.2168,4.4453a3.96607,3.96607,0,0,1-2.6543,3.8847c1.4433.9571,2.3281,2.4219,3.5381,4.4043.6757,1.0938,1.0712,1.6309,2.166,3.1426h-2.7237l-2.0957-3.2617c-2.0966-3.2568-3.0498-3.6318-4.2148-3.6318h-.9541v6.8935h-2.2803V61.19931Zm-1.7217,6.9345h1.4658c2.4443,0,3.1436-1.2549,3.1201-2.583-.0254-1.4892-.9072-2.3984-3.1201-2.3984h-1.4658Z"/>
        <path d="M304.2002,64.68951a5.3347,5.3347,0,0,0-3.7256-1.6533c-1.4688,0-2.5147.7685-2.5147,1.8857,0,3.0508,6.8682,3.0039,6.8682,8.0586a4.24793,4.24793,0,0,1-4.4492,4.3047,6.9956,6.9956,0,0,1-4.4453-1.4658v-2.8887a5.35974,5.35974,0,0,0,4.1914,2.3066c1.7666,0,2.5849-1.1191,2.5849-2.0029,0-3.2842-6.8671-3.6572-6.8671-8.0098,0-2.5839,1.9072-4.2373,4.8173-4.2373a6.36154,6.36154,0,0,1,3.5401,1.1192Z"/>
        <path d="M309.6181,77.07621h-2.2773V61.19931h2.2773Z"/>
        <path d="M325.0556,63.24611h-5.4921v13.8301h-2.2823V63.24611h-5.497v-2.0468h13.2714Z"/>
        <path d="M336.8974,61.19931h2.7461l-5.8925,7.4941v8.3828h-2.2784V68.67l-5.8925-7.47069h2.748l4.2598,5.46969Z"/>
      </g>
      <g>
        <g>
          <polygon points="197.227 21.867 197.227 10.848 191.076 10.848 191.076 55.068 197.227 55.068 197.227 26.799 203.104 26.799 203.104 21.867 197.227 21.867"/>
          <path d="M171.751,10.42781c-7.0518,0-12.7676,6.3867-12.7676,14.2656,0,7.8799,5.7158,14.26759,12.7676,14.26759,7.0527,0,12.7685-6.38769,12.7685-14.26759C184.5195,16.81451,178.8037,10.42781,171.751,10.42781Zm0,23.7324c-3.5909,0-6.4981-4.2363-6.4981-9.4668,0-5.2266,2.9072-9.4658,6.4981-9.4658,3.5879,0,6.498,4.2392,6.498,9.4658C178.249,29.92391,175.3389,34.16021,171.751,34.16021Z"/>
          <path d="M216.7412,32.76081a.78506.78506,0,0,1-.7842-.7852l.0029-15.10061h10.7266V11.88091l-16.8779.0234.0127,21.9483a3.85218,3.85218,0,0,0,3.8515,3.8476l17.8741-.0068v17.3223h5.4345V26.79691h3.7754v28.2188h5.8828V10.794h-5.8828V21.86331h-3.7754V10.794h-5.4345V32.76081Z"/>
          <path d="M339.5068,15.75391a3.85407,3.85407,0,0,0-3.8525-3.8525l-30.9199-.0059.0087,4.9249,27.8282.0019a.78277.78277,0,0,1,.7842.7832v29.0059h-5.6329V30.333h-5.8798V46.61141h-5.4229V30.333h-5.8848V46.61141h-7.5107V51.544h36.459Z"/>
          <path d="M286.6279,44.042a.78469.78469,0,0,0-.7842-.78409l-26.7802-.002v-4.9727l27.5771-.0156V10.82231h6.1543v11.041h6.0518v4.9336h-6.0518v28.251l-6.1728.0039Z"/>
          <path d="M283.6748,12.63291H272.3486V8.82521h-6.1543v3.8077H255.1826v4.9326h3.752a9.53469,9.53469,0,0,0-1.8633,5.6162c0,5.874,5.5244,10.6308,12.3398,10.6308,6.8125,0,12.335-4.7568,12.335-10.6308a9.53906,9.53906,0,0,0-1.8614-5.6162h3.7901Zm-14.2637,16.1376c-3.5019,0-6.3418-2.5019-6.3418-5.5888,0-3.085,2.8399-5.5889,6.3418-5.5889,3.4971,0,6.336,2.5039,6.336,5.5889C275.7471,26.26861,272.9082,28.77051,269.4111,28.77051Z"/>
        </g>
        <path d="M154.1416,32.70611H135.9033v-4.3223h14.7813V23.458l-28.877-.00579a.7857.7857,0,0,1-.7852-.78421l.0098-5.82709h29.2383v-4.9327H114.8916l-.0147,12.6299a3.84784,3.84784,0,0,0,3.8496,3.8496l11.0245-.0088v4.3272H111.499v4.9336h9.0459a10.35038,10.35038,0,0,0-3.0723,7.1758c0,6.6006,6.8204,11.9482,15.2295,11.9482,8.4121,0,15.2325-5.3476,15.2325-11.9482a10.34385,10.34385,0,0,0-3.0743-7.1758h9.2813Zm-21.4395,19.4922c-5.1367,0-9.3056-3.3076-9.3056-7.3828,0-4.0762,4.1689-7.3819,9.3056-7.3819,5.1426,0,9.3067,3.3057,9.3067,7.3819C142.0088,48.89071,137.8447,52.19831,132.7021,52.19831Z"/>
      </g>
    </g>
    <g>
      <g>
        <g>
          <path d="M3.6328,51.98831l-.2891-2.5195a3.23168,3.23168,0,0,1,2.8526-3.8223,3.29709,3.29709,0,0,1,3.6338,3.0713L10.1162,51.25Zm5.541-1.5771-.167-1.4834a2.3989,2.3989,0,0,0-2.7031-2.3194,2.35981,2.35981,0,0,0-2.1065,2.9141L4.3623,50.96Z" fill="#002965"/>
          <path d="M3.458,38.03911a3.354,3.354,0,1,1,2.7666,3.9834A3.329,3.329,0,0,1,3.458,38.03911Zm5.7685.9092a2.45189,2.45189,0,0,0-2.0605-2.9024,2.54282,2.54282,0,1,0,2.0605,2.9024Z" fill="#002965"/>
          <path d="M13.9922,27.22661l-.334.73239L7.2744,29.83791l4.5684,2.0899-.3663.7988-5.9365-2.71.3106-.67961,6.4336-1.92289-4.5948-2.0986.3682-.7998Z" fill="#002965"/>
          <path d="M19.0752,19.711a5.67857,5.67857,0,0,1-1.166,2.25971,3.29525,3.29525,0,0,1-4.7686.57229,3.37991,3.37991,0,0,1-.3838-4.85939,5.32687,5.32687,0,0,1,1.9072-1.4384l.7315.6025a4.875,4.875,0,0,0-1.9873,1.3984,2.49217,2.49217,0,1,0,3.9209,3.0723,4.55851,4.55851,0,0,0,.7002-1.2559L16.9971,19.209l-.7969.96781-.6514-.5361,1.3955-1.6924Z" fill="#002965"/>
          <path d="M21.6689,14.32521l-1.8144,1.4561-.5567-.6924,1.8106-1.459Z" fill="#002965"/>
          <path d="M31.0928,12.085l-.8487.44431-1.664-1.3027-2.459,1.2881.1631,2.0849-.8477.44539-.5586-7.11719.5879-.3067Zm-5.0391-.48629,1.8008-.9385-2.0323-1.6084Z" fill="#002965"/>
          <path d="M43.4805,6.90241c.1669,1.5908-.6807,2.7353-2.6124,2.93359a2.48646,2.48646,0,0,1-2.9648-2.26559l-.417-4.0342.9365-.0967.3936,3.8369c.0752.7334.2021,1.0264.5283,1.294a1.90453,1.90453,0,0,0,1.4531.4072,2.14944,2.14944,0,0,0,1.4727-.6807A1.89888,1.89888,0,0,0,42.5322,6.837l-.3887-3.77929.9336-.09571Z" fill="#002965"/>
          <path d="M52.8935,10.458l-.7929-.12689-3.5284-5.6445L47.79,9.65141l-.872-.1377,1.0185-6.4473.7402.1163,3.5801,5.6816.7852-4.9932.872.1377Z" fill="#002965"/>
          <path d="M57.0303,11.89361l-.8799-.3252,2.2656-6.1191.877.3232Z" fill="#002965"/>
          <path d="M62.2314,14.47661l-.165-.0947.8935-7.1104.8067.4727-.6211,4.9502,4-2.9707.8008.4697Z" fill="#002965"/>
          <path d="M73.3183,15.81451l-2.0488-1.8613-1.3242,1.4599L71.9219,17.208l-.5674.62411-1.9756-1.795-1.3643,1.5,2.1094,1.92-.5644.622-2.8047-2.5488,4.3867-4.8301,2.7422,2.4912Z" fill="#002965"/>
          <path d="M77.8271,19.84481a1.85886,1.85886,0,0,1-.2324,2.8086,1.627,1.627,0,0,1-1.9297.0449,5.42794,5.42794,0,0,1-.6191,2.2412c-.2051.4863-.2871.749-.5313,1.4746l-.6543-.9082.583-1.4814c.587-1.48151.4825-1.8887.2012-2.2784l-.2275-.3174L72.1172,23.084l-.5489-.76169,5.2989-3.8135Zm-2.7285,1.0918.3535.4873c.5869.8173,1.1739.747,1.6114.4218.4921-.3652.582-.8789.0507-1.6152l-.3525-.4912Z" fill="#002965"/>
          <path d="M81.665,29.61921a2.20482,2.20482,0,0,0-.0019-1.6768c-.2461-.5508-.7119-.81541-1.1319-.6279-1.1416.5098.0254,3.0801-1.872,3.9287a1.74242,1.74242,0,0,1-2.3594-.94821,2.87848,2.87848,0,0,1-.1973-1.91609l1.084-.4814a2.20751,2.20751,0,0,0-.1621,1.959.93667.93667,0,0,0,1.1836.6347c1.2314-.5517.2226-3.1933,1.8555-3.9208A1.75607,1.75607,0,0,1,82.4619,27.668a2.6271,2.6271,0,0,1,.1728,1.51661Z" fill="#002965"/>
          <path d="M78.3183,35.82821l-.2451-.9024,6.3008-1.7109.2461.9062Z" fill="#002965"/>
          <path d="M85.1826,43.65921l-.2002-2.2519-5.6631.5009-.084-.9365,5.6661-.499-.1973-2.25.8379-.0752.4785,5.43649Z" fill="#002965"/>
          <path d="M85.3281,51.77841l-.1523,1.1201L82.4492,50.084l-3.417-.46779.127-.9267,3.4228.4648L85.9541,47.169l-.1543,1.11811-2.46,1.4336Z" fill="#002965"/>
        </g>
        <g>
          <path d="M20.5322,72.34771a1.98214,1.98214,0,0,0-.5986-1.4014c-.4014-.374-.8838-.4306-1.169-.125-.7773.8369,1.1162,2.5752-.1728,3.9561a1.58706,1.58706,0,0,1-2.3164.0478,2.627,2.627,0,0,1-.8438-1.5351l.7373-.78811a2.0032,2.0032,0,0,0,.5596,1.69731.84869.84869,0,0,0,1.2178.1084c.8388-.8965-.9492-2.75.1601-3.9434a1.60062,1.60062,0,0,1,2.4004.0664,2.38123,2.38123,0,0,1,.6856,1.208Z" fill="#002965"/>
          <path d="M21.1836,78.64461l-.7022-.4893,3.4004-4.8691.7012.4883Z" fill="#002965"/>
          <path d="M29.7666,83.22861l-.6641-.3077-1.7031-5.8095-1.9082,4.1582-.7266-.3369,2.4746-5.4004.6172.2861,1.7422,5.8564,1.916-4.1806.7295.3349Z" fill="#002965"/>
          <path d="M39.8642,81.02451a3.93719,3.93719,0,0,0-1.8896-1.0088,2.26376,2.26376,0,0,0-2.7695,1.7675,2.2265,2.2265,0,0,0,1.917,2.6836,3.87433,3.87433,0,0,0,2.1669-.2519l-.1835.915a4.3489,4.3489,0,0,1-2.2139.0918,3.03879,3.03879,0,0,1-2.5635-3.5342A3.09483,3.09483,0,0,1,38.1377,79.25a5.16309,5.16309,0,0,1,1.9023.876Z" fill="#002965"/>
          <path d="M46.4053,80.65431l-2.5176.0059.0049,1.793,2.4316-.0088.002.7695-2.4317.0068.0049,1.8487,2.5996-.0078.001.7627-3.4512.01269-.0176-5.94049,3.3721-.0127Z" fill="#002965"/>
          <path d="M54.5254,84.59961l-.8311.19539-1.374-5.78029.832-.1992Z" fill="#002965"/>
          <path d="M59.7803,82.32821a3.95958,3.95958,0,0,0,.7744-2.7666,1.90085,1.90085,0,0,1-.7481.5986,1.6924,1.6924,0,0,1-2.2334-.919,1.78368,1.78368,0,0,1,.961-2.333,1.98443,1.98443,0,0,1,2.6005,1.2325,4.98652,4.98652,0,0,1-.6259,4.5537Zm-.127-2.9825a1.65945,1.65945,0,0,0,.707-.6572,1.80216,1.80216,0,0,0-.1504-.458,1.04444,1.04444,0,0,0-1.3378-.5889.92341.92341,0,0,0-.5186,1.252A.97731.97731,0,0,0,59.6533,79.34571Z" fill="#002965"/>
          <path d="M66.9209,75.96291l.5293-.3554.4238.6406-.5293.3496,1.0801,1.6269-.71.4747-1.0791-1.628-2.0976,1.3936-.2168-.3262.4668-4.7256.3066-.20111Zm-1.8565,1.2325,1.1446-.7598-.9326-1.4082-.0157.0078Z" fill="#002965"/>
          <path d="M70.1015,69.77051a4.11837,4.11837,0,0,0,.1875,2.8331,1.95748,1.95748,0,0,1,.5069-.8194,1.664,1.664,0,0,1,2.3994.1045,1.78627,1.78627,0,0,1-.04,2.4961,1.91729,1.91729,0,0,1-2.8418-.2021,4.88727,4.88727,0,0,1-1.0352-4.5284ZM72.5576,73.834a.90905.90905,0,0,0,.0127-1.36029.92458.92458,0,0,0-1.3428.0166,1.46615,1.46615,0,0,0-.4629.8769A1.14646,1.14646,0,0,0,72.5576,73.834Z" fill="#002965"/>
        </g>
        <path d="M10.7285,63.16021a.98145.98145,0,1,0-.9814-.9834A.98006.98006,0,0,0,10.7285,63.16021Z" fill="#002965"/>
        <path d="M78.4619,63.16021a.98145.98145,0,1,0-.9814-.9834A.97943.97943,0,0,0,78.4619,63.16021Z" fill="#002965"/>
      </g>
      <g>
        <path d="M61.0576,22.81351a8.59808,8.59808,0,0,1-6.8301,5.6904v-5.6787l-7.8242-.0009V21.211H42.5342v1.61331l-7.8936.0009v5.6709a8.59147,8.59147,0,0,1-6.7529-5.6826l-4.3389.0117v26.128a24.64822,24.64822,0,0,0,20.917,24.5781,24.63893,24.63893,0,0,0,20.9268-24.5781v-26.128Zm-14.1494,2.6992h4.6299v2.9707a8.539,8.539,0,0,1-5.1494-2.9599Zm-9.5791,0h4.7617l.4648.0108a8.55306,8.55306,0,0,1-5.2265,2.9707Zm25.374,23.4405A21.93606,21.93606,0,0,1,44.4697,70.751,21.92406,21.92406,0,0,1,26.2392,48.95321V25.84671a11.347,11.347,0,0,0,18.2364,1.7139,11.34022,11.34022,0,0,0,18.2295-1.7139Z" fill="#002965"/>
        <path d="M54.2275,39.89851v-2.5791h2.6406v-2.6895H48.9023v2.6895h2.6358v2.5791a6.8461,6.8461,0,0,0,.0049,13.4267l.0039,1.0879a7.11035,7.11035,0,1,1-14.2207,0v-1.9179h4.1259v-2.6915H32.7793v-6.3798h8.6728v-2.6905h-4.123v-3.414h2.6494v-2.6895H32.0039v2.6895h2.6367v3.414l-4.5517-.0048v11.7666h4.5527l.0058,1.9179a9.7886,9.7886,0,1,0,19.5772,0v-1.0898a6.84543,6.84543,0,0,0,.0029-13.4248Zm-1.3437,10.8623a4.14845,4.14845,0,1,1,4.1484-4.1494A4.149,4.149,0,0,1,52.8838,50.76081Z" fill="#002965"/>
      </g>
      <path d="M44.4824,0A44.48491,44.48491,0,1,0,88.9658,44.48541,44.485,44.485,0,0,0,44.4824,0Zm0,87.73441a43.2505,43.2505,0,1,1,43.25-43.251A43.24865,43.24865,0,0,1,44.4824,87.73441Z" fill="#002965"/>
      <path d="M44.4824,11.11141a33.37255,33.37255,0,1,0,33.3721,33.372A33.37311,33.37311,0,0,0,44.4824,11.11141Zm0,65.9599a32.5879,32.5879,0,1,1,32.5889-32.5879A32.58843,32.58843,0,0,1,44.4824,77.07131Z" fill="#002965"/>
    </g>
  </g>
</svg>
